<svg width="153" height="31" viewBox="0 0 153 31" fill="none" xmlns="http://www.w3.org/2000/svg">
<g id="logo" clip-path="url(#clip0_1_184)">
<g id="Leeds">
<g id="white">
<path id="Path 1" d="M19.502 9.16497C18.892 9.52596 18.1996 9.72467 17.491 9.74218C16.7824 9.75968 16.0811 9.59543 15.454 9.265L18.754 5.36498C18.9813 5.10031 19.1268 4.77527 19.1728 4.42943C19.2188 4.08359 19.1632 3.73185 19.013 3.41698C18.8649 3.09938 18.6287 2.831 18.3324 2.64379C18.0362 2.45658 17.6924 2.35842 17.342 2.36098H14.828C14.4664 2.3607 14.109 2.43928 13.7809 2.59127C13.4527 2.74325 13.1617 2.96499 12.928 3.24099L10.928 5.60897L8.95399 3.96599C7.99158 3.16498 6.84577 2.61478 5.61888 2.36455C4.39199 2.11432 3.12222 2.17184 1.92299 2.53197C1.66081 2.61054 1.43088 2.7714 1.26718 2.99074C1.10348 3.21009 1.01471 3.47629 1.01399 3.74999V5.64998C1.01476 5.76294 1.04541 5.87369 1.10283 5.97097C1.16025 6.06824 1.2424 6.14859 1.34093 6.20385C1.43945 6.2591 1.55084 6.28727 1.66379 6.28554C1.77673 6.28381 1.88721 6.25224 1.98399 6.19399C2.72019 5.75865 3.57292 5.56142 4.42551 5.62926C5.27809 5.6971 6.0889 6.02671 6.74699 6.57299L7.01298 6.794L1.87498 12.866C1.76684 12.9935 1.68508 13.1413 1.63444 13.3006C1.58381 13.46 1.5653 13.6279 1.58 13.7945C1.5947 13.9611 1.6423 14.1231 1.72006 14.2711C1.79782 14.4192 1.90418 14.5503 2.03299 14.657L5.26199 17.344L0.155989 23.379C0.0777799 23.4718 0.0278401 23.5852 0.0120837 23.7056C-0.0036727 23.826 0.0154172 23.9484 0.0670917 24.0583C0.118766 24.1682 0.200853 24.2609 0.303633 24.3256C0.406413 24.3902 0.525572 24.424 0.646987 24.423H2.183L1.03499 25.781C0.807675 26.0457 0.662176 26.3707 0.616194 26.7165C0.570212 27.0624 0.625726 27.4141 0.775984 27.729C0.92388 28.0467 1.16006 28.3153 1.45634 28.5025C1.75263 28.6897 2.09651 28.7878 2.44699 28.785H4.95999C5.32165 28.7854 5.67903 28.7069 6.0072 28.5549C6.33537 28.4029 6.6264 28.1811 6.85998 27.905L15.033 18.245C15.2421 17.9978 15.4002 17.7115 15.4981 17.4029C15.5959 17.0942 15.6317 16.7693 15.6032 16.4467C15.5748 16.1242 15.4827 15.8104 15.3323 15.5237C15.1819 15.2369 14.9762 14.9828 14.727 14.776L12.419 12.855L13.224 11.904C14.4568 12.7169 15.9013 13.1495 17.378 13.148C17.6013 13.148 17.8253 13.1387 18.05 13.12C18.5636 13.0746 19.0713 12.9768 19.565 12.828C19.8271 12.7496 20.057 12.5889 20.2207 12.3697C20.3844 12.1506 20.4732 11.8845 20.474 11.611V9.71099C20.4732 9.59803 20.4426 9.48728 20.3851 9.39C20.3277 9.29273 20.2456 9.21241 20.1471 9.15716C20.0485 9.1019 19.9371 9.0737 19.8242 9.07543C19.7113 9.07716 19.6008 9.10873 19.504 9.16698M13.953 15.694C14.0816 15.8004 14.1878 15.9314 14.2654 16.0792C14.3431 16.2269 14.3906 16.3887 14.4053 16.555C14.42 16.7213 14.4016 16.8888 14.351 17.048C14.3005 17.2071 14.2189 17.3546 14.111 17.482L5.937 27.142C5.81638 27.2842 5.66624 27.3985 5.49701 27.4769C5.32778 27.5553 5.14349 27.596 4.95698 27.596H2.44398C2.32284 27.5967 2.20404 27.5626 2.10159 27.498C1.99915 27.4333 1.91734 27.3407 1.86583 27.231C1.81431 27.1214 1.79524 26.9993 1.81087 26.8791C1.82649 26.759 1.87615 26.6458 1.95399 26.553L10.096 16.929L5.88499 13.429L13.85 4.01497C13.9706 3.87274 14.1207 3.75853 14.29 3.68029C14.4592 3.60205 14.6435 3.56167 14.83 3.56197H17.344C17.4651 3.56107 17.584 3.5949 17.6865 3.65944C17.789 3.72399 17.8709 3.81654 17.9225 3.92617C17.974 4.03579 17.9931 4.15788 17.9774 4.278C17.9617 4.39813 17.912 4.51127 17.834 4.60399L10.723 13.01L13.953 15.694Z" fill="white"/>
<path id="Path 2" d="M35.92 10.859C35.7309 10.8616 35.5465 10.8003 35.3967 10.6851C35.2468 10.5698 35.1401 10.4074 35.094 10.224C35.012 9.74604 34.7671 9.31119 34.4009 8.99329C34.0347 8.67539 33.5697 8.49407 33.085 8.48004C32.8285 8.46241 32.5711 8.49568 32.3276 8.57794C32.084 8.66021 31.8591 8.78981 31.6659 8.95935C31.4727 9.12889 31.3149 9.33496 31.2016 9.56574C31.0884 9.79651 31.0219 10.0474 31.006 10.304C31.006 13.344 38.763 13.159 38.763 19.24C38.7209 20.655 38.119 21.9956 37.0896 22.9673C36.0601 23.939 34.6871 24.4626 33.272 24.423H32.845C31.4271 24.4632 30.0509 23.9407 29.017 22.9695C27.9832 21.9984 27.3756 20.6576 27.327 19.24V19.029C27.3278 18.86 27.3956 18.6982 27.5156 18.5791C27.6356 18.46 27.798 18.3935 27.967 18.394H30.072C30.241 18.3935 30.4034 18.46 30.5234 18.5791C30.6434 18.6982 30.7112 18.86 30.712 19.029V19.24C30.7338 19.8039 30.9741 20.3372 31.3821 20.7271C31.7901 21.1169 32.3337 21.3328 32.898 21.329H33.191C33.7257 21.3489 34.2476 21.1629 34.6493 20.8095C35.0509 20.456 35.3017 19.9619 35.35 19.429C35.35 15.622 27.62 16.362 27.62 10.546C27.6945 9.18477 28.2758 7.90072 29.2495 6.94647C30.2231 5.99223 31.5186 5.43689 32.8811 5.38974C34.2435 5.3426 35.5743 5.80706 36.6116 6.69171C37.6489 7.57637 38.3175 8.81721 38.486 10.17C38.4943 10.2584 38.4839 10.3474 38.4556 10.4315C38.4272 10.5156 38.3816 10.5928 38.3215 10.6581C38.2615 10.7234 38.1884 10.7754 38.107 10.8107C38.0256 10.846 37.9377 10.8638 37.849 10.863L35.92 10.859Z" fill="white"/>
<path id="Path 3" d="M50.952 9.84504V11.423C50.8987 12.5245 50.4626 13.5727 49.719 14.387C50.1577 14.8064 50.5093 15.3082 50.7538 15.8637C50.9983 16.4191 51.1309 17.0173 51.144 17.624V19.663C51.144 22.518 48.622 24.422 45.88 24.422H41.331C41.2195 24.4224 41.109 24.4008 41.0059 24.3585C40.9027 24.3162 40.8089 24.254 40.7298 24.1755C40.6507 24.0969 40.5878 24.0036 40.5448 23.9007C40.5018 23.7978 40.4794 23.6875 40.479 23.5761V6.23102C40.4794 6.11953 40.5018 6.0092 40.5448 5.90635C40.5878 5.80349 40.6507 5.71013 40.7298 5.63157C40.8089 5.55301 40.9027 5.49079 41.0059 5.44849C41.109 5.40619 41.2195 5.38462 41.331 5.38502H45.962C48.868 5.38502 50.952 7.34304 50.952 9.84504ZM43.988 8.56702V12.867H45.988C46.368 12.8921 46.7426 12.7661 47.0302 12.5165C47.3178 12.2669 47.4953 11.9138 47.524 11.534V9.90302C47.4951 9.52343 47.3175 9.17062 47.0299 8.92121C46.7423 8.6718 46.3679 8.54597 45.988 8.57105L43.988 8.56702ZM43.988 21.239H45.88C46.3182 21.2586 46.7463 21.1033 47.0701 20.8074C47.3939 20.5116 47.587 20.0992 47.607 19.661V17.645C47.577 17.2086 47.3816 16.8 47.0607 16.5027C46.7397 16.2054 46.3175 16.0417 45.88 16.045H43.988V21.239Z" fill="white"/>
<path id="Path 4" d="M62.455 24.422C60.5761 24.4058 58.744 23.8339 57.1896 22.7782C55.6352 21.7226 54.428 20.2305 53.7202 18.4899C53.0123 16.7494 52.8355 14.8382 53.212 12.9974C53.5884 11.1565 54.5013 9.46823 55.8357 8.14531C57.17 6.82238 58.866 5.92399 60.7101 5.56334C62.5541 5.20268 64.4636 5.39589 66.1981 6.11863C67.9325 6.84138 69.4142 8.06128 70.4564 9.62468C71.4987 11.1881 72.0549 13.025 72.055 14.904C72.0415 17.4384 71.0231 19.8639 69.2233 21.6483C67.4236 23.4327 64.9894 24.4302 62.455 24.422ZM62.455 8.88298C61.266 8.89265 60.1066 9.25407 59.1227 9.92167C58.1388 10.5893 57.3746 11.5332 56.9263 12.6344C56.4781 13.7357 56.3659 14.945 56.6038 16.11C56.8418 17.2749 57.4192 18.3433 58.2634 19.1806C59.1076 20.0178 60.1808 20.5864 61.3477 20.8147C62.5145 21.043 63.7229 20.9208 64.8204 20.4635C65.9179 20.0061 66.8554 19.2341 67.5149 18.2448C68.1743 17.2554 68.5261 16.093 68.526 14.904C68.5175 13.301 67.8736 11.7669 66.7355 10.6382C65.5973 9.5094 64.0579 8.87819 62.455 8.88298Z" fill="white"/>
<path id="Path 5" d="M72.913 5.38599H82.53C82.7552 5.38519 82.9716 5.47385 83.1316 5.63248C83.2915 5.79111 83.3819 6.00674 83.383 6.232V7.72202C83.3819 7.94728 83.2915 8.16288 83.1316 8.32151C82.9716 8.48014 82.7552 8.56877 82.53 8.56797H79.463V23.576C79.4626 23.6876 79.4402 23.798 79.3971 23.9009C79.354 24.0038 79.2911 24.0972 79.2119 24.1758C79.1326 24.2544 79.0387 24.3166 78.9354 24.3588C78.8322 24.401 78.7216 24.4225 78.61 24.422H76.81C76.6984 24.4225 76.5878 24.401 76.4846 24.3588C76.3813 24.3166 76.2874 24.2544 76.2081 24.1758C76.1289 24.0972 76.066 24.0038 76.0229 23.9009C75.9798 23.798 75.9574 23.6876 75.957 23.576V8.56797H72.913C72.6877 8.56877 72.4714 8.48014 72.3114 8.32151C72.1515 8.16288 72.0611 7.94728 72.06 7.72202V6.232C72.0611 6.00674 72.1515 5.79111 72.3114 5.63248C72.4714 5.47385 72.6877 5.38519 72.913 5.38599Z" fill="white"/>
<path id="Path 6" d="M95.621 19.239C95.5807 20.6498 94.9831 21.9873 93.9591 22.9587C92.9351 23.93 91.568 24.4561 90.157 24.422H89.731C88.3146 24.4511 86.9437 23.9208 85.9158 22.9458C84.8879 21.9709 84.2857 20.63 84.24 19.214V10.568C84.2868 9.15461 84.8901 7.81702 85.9185 6.84644C86.947 5.87585 88.3173 5.35092 89.731 5.38599H90.157C91.5678 5.35182 92.9348 5.87786 93.9588 6.849C94.9828 7.82014 95.5804 9.15729 95.621 10.568V19.239ZM92.263 10.409C92.2307 9.86743 91.9857 9.36067 91.5812 8.99912C91.1768 8.63756 90.6457 8.45056 90.104 8.47898H89.811C89.2663 8.44955 88.7318 8.63545 88.3229 8.99649C87.9139 9.35754 87.6633 9.8648 87.625 10.409V19.372C87.6621 19.9188 87.9114 20.4295 88.3199 20.795C88.7283 21.1604 89.2634 21.3517 89.811 21.328H90.078C90.6226 21.3571 91.157 21.1712 91.5658 20.8102C91.9747 20.4492 92.2254 19.9421 92.264 19.398L92.263 10.409Z" fill="white"/>
<path id="Path 7" d="M103.878 5.386H99.047C98.9355 5.38548 98.825 5.40693 98.7218 5.44911C98.6186 5.49129 98.5247 5.55339 98.4455 5.63185C98.3663 5.71032 98.3033 5.80361 98.2601 5.90642C98.217 6.00922 98.1945 6.11951 98.194 6.231V23.575C98.1951 23.8003 98.2855 24.0159 98.4454 24.1745C98.6054 24.3332 98.8217 24.4218 99.047 24.421H100.859C100.97 24.4215 101.081 24.4001 101.184 24.3579C101.287 24.3157 101.381 24.2536 101.461 24.1752C101.54 24.0967 101.603 24.0034 101.646 23.9006C101.689 23.7978 101.711 23.6875 101.712 23.576V18.245H103.878C104.503 18.2679 105.127 18.166 105.713 17.945C106.298 17.724 106.834 17.3885 107.289 16.958C107.743 16.5275 108.107 16.0108 108.359 15.438C108.612 14.8652 108.747 14.2478 108.758 13.622V9.97801C108.743 9.35464 108.604 8.74053 108.349 8.17113C108.095 7.60173 107.731 7.08835 107.277 6.66063C106.823 6.23291 106.289 5.89933 105.706 5.67918C105.122 5.45904 104.501 5.35668 103.878 5.37801M105.194 13.835C105.169 14.189 105.005 14.5187 104.738 14.7528C104.471 14.9869 104.123 15.1066 103.769 15.086H101.712V8.55998H103.769C103.946 8.55026 104.124 8.57559 104.292 8.63451C104.459 8.69342 104.614 8.78479 104.746 8.90337C104.878 9.02195 104.986 9.16541 105.063 9.32561C105.14 9.4858 105.184 9.6596 105.194 9.83702V13.835Z" fill="white"/>
</g>
</g>
</g>
<defs>
<clipPath id="clip0_1_184">
<rect width="153" height="31" fill="white"/>
</clipPath>
</defs>
</svg>
